<?xml version="1.0" encoding="utf-8"?>
<!-- Generator: Adobe Illustrator 20.0.0, SVG Export Plug-In . SVG Version: 6.00 Build 0)  -->
<!DOCTYPE svg PUBLIC "-//W3C//DTD SVG 1.1//EN" "http://www.w3.org/Graphics/SVG/1.1/DTD/svg11.dtd">
<svg version="1.1" xmlns="http://www.w3.org/2000/svg" xmlns:xlink="http://www.w3.org/1999/xlink" x="0px" y="0px"
	 viewBox="0 0 1960 289.6" enable-background="new 0 0 1960 289.6" xml:space="preserve">
<g id="Background">
	<g opacity="0.5">
		<rect x="50" y="25.1" fill="none" stroke="#000000" stroke-miterlimit="10" width="930" height="199"/>
		<line fill="none" stroke="#000000" stroke-miterlimit="10" x1="50" y1="157.7" x2="980" y2="157.7"/>
		<line fill="none" stroke="#000000" stroke-miterlimit="10" x1="50" y1="91.4" x2="980" y2="91.4"/>
		<line fill="none" stroke="#000000" stroke-miterlimit="10" x1="847.1" y1="25.1" x2="847.1" y2="224"/>
		<line fill="none" stroke="#000000" stroke-miterlimit="10" x1="714.3" y1="25.1" x2="714.3" y2="224"/>
		<line fill="none" stroke="#000000" stroke-miterlimit="10" x1="581.4" y1="25.1" x2="581.4" y2="224"/>
		<line fill="none" stroke="#000000" stroke-miterlimit="10" x1="448.6" y1="25.1" x2="448.6" y2="224"/>
		<line fill="none" stroke="#000000" stroke-miterlimit="10" x1="315.7" y1="25.1" x2="315.7" y2="224"/>
		<line fill="none" stroke="#000000" stroke-miterlimit="10" x1="182.9" y1="25.1" x2="182.9" y2="224"/>
	</g>
	<g opacity="0.5">
		<rect x="1010" y="25.1" fill="none" stroke="#000000" stroke-miterlimit="10" width="930" height="199"/>
		<line fill="none" stroke="#000000" stroke-miterlimit="10" x1="1010" y1="157.7" x2="1940" y2="157.7"/>
		<line fill="none" stroke="#000000" stroke-miterlimit="10" x1="1010" y1="91.4" x2="1940" y2="91.4"/>
		<line fill="none" stroke="#000000" stroke-miterlimit="10" x1="1807.1" y1="25.1" x2="1807.1" y2="224"/>
		<line fill="none" stroke="#000000" stroke-miterlimit="10" x1="1674.3" y1="25.1" x2="1674.3" y2="224"/>
		<line fill="none" stroke="#000000" stroke-miterlimit="10" x1="1541.4" y1="25.1" x2="1541.4" y2="224"/>
		<line fill="none" stroke="#000000" stroke-miterlimit="10" x1="1408.6" y1="25.1" x2="1408.6" y2="224"/>
		<line fill="none" stroke="#000000" stroke-miterlimit="10" x1="1275.7" y1="25.1" x2="1275.7" y2="224"/>
		<line fill="none" stroke="#000000" stroke-miterlimit="10" x1="1142.9" y1="25.1" x2="1142.9" y2="224"/>
	</g>
	<g>
		<path d="M494.4,262.2c0-3.1,0.5-6,1.4-8.7s2.2-5.1,3.9-7.1h2.8c-1.7,2.3-3,4.7-3.8,7.5s-1.3,5.5-1.3,8.3c0,2.8,0.4,5.6,1.3,8.2
			c0.9,2.7,2.1,5.1,3.7,7.3h-2.8c-1.7-2-3-4.3-3.9-7C494.9,268.1,494.4,265.3,494.4,262.2z"/>
		<path d="M518.6,272.1l-0.6-2.7h-0.1c-1,1.2-1.9,2-2.9,2.5s-2.1,0.6-3.6,0.6c-1.9,0-3.4-0.5-4.5-1.5c-1.1-1-1.6-2.4-1.6-4.2
			c0-3.9,3.1-5.9,9.3-6.1l3.3-0.1v-1.2c0-1.5-0.3-2.6-1-3.3s-1.7-1.1-3.1-1.1c-1.6,0-3.4,0.5-5.4,1.5l-0.9-2.2
			c0.9-0.5,2-0.9,3.1-1.2s2.3-0.4,3.4-0.4c2.3,0,4,0.5,5.1,1.5s1.7,2.7,1.7,4.9v13.1H518.6z M512,270c1.8,0,3.2-0.5,4.3-1.5
			s1.6-2.4,1.6-4.2v-1.7l-2.9,0.1c-2.3,0.1-4,0.4-5,1.1s-1.5,1.6-1.5,3c0,1.1,0.3,1.9,1,2.4S510.9,270,512,270z"/>
		<path d="M532.9,262.2c0,3.1-0.5,6-1.4,8.6c-0.9,2.7-2.2,5-3.9,6.9h-2.8c1.6-2.2,2.9-4.6,3.7-7.3c0.9-2.7,1.3-5.4,1.3-8.3
			c0-2.9-0.4-5.6-1.3-8.3s-2.1-5.2-3.8-7.5h2.8c1.7,2.1,3,4.4,3.9,7.1S532.9,259.1,532.9,262.2z"/>
	</g>
	<g>
		<path d="M1453.4,262.2c0-3.1,0.5-6,1.4-8.7s2.2-5.1,3.9-7.1h2.8c-1.7,2.3-3,4.7-3.8,7.5s-1.3,5.5-1.3,8.3c0,2.8,0.4,5.6,1.3,8.2
			s2.1,5.1,3.7,7.3h-2.8c-1.7-2-3-4.3-3.9-7S1453.4,265.3,1453.4,262.2z"/>
		<path d="M1474.7,252.5c2.5,0,4.5,0.9,5.9,2.6s2.1,4.2,2.1,7.3s-0.7,5.6-2.1,7.4s-3.4,2.6-5.9,2.6c-1.3,0-2.4-0.2-3.4-0.7
			s-1.9-1.2-2.6-2.1h-0.2l-0.6,2.5h-2.1v-27.4h2.9v6.6c0,1.5,0,2.8-0.1,4h0.1C1470,253.5,1472,252.5,1474.7,252.5z M1474.3,255
			c-2,0-3.4,0.6-4.3,1.7s-1.3,3.1-1.3,5.8s0.5,4.6,1.4,5.8s2.3,1.7,4.3,1.7c1.8,0,3.1-0.7,4-2s1.3-3.2,1.3-5.6
			c0-2.5-0.4-4.4-1.3-5.6S1476.1,255,1474.3,255z"/>
		<path d="M1493.9,262.2c0,3.1-0.5,6-1.4,8.6s-2.2,5-3.9,6.9h-2.8c1.6-2.2,2.9-4.6,3.7-7.3s1.3-5.4,1.3-8.3c0-2.9-0.4-5.6-1.3-8.3
			s-2.1-5.2-3.8-7.5h2.8c1.7,2.1,3,4.4,3.9,7.1S1493.9,259.1,1493.9,262.2z"/>
	</g>
</g>
<g id="Layer_3">
	<polygon opacity="0.19" fill="#C1272D" points="50,158 182.9,58 315.7,58 448.6,158 581.4,158 714.3,124.5 847.1,124.5 977.3,158 	
		"/>
	<polygon fill="none" stroke="#C1272D" stroke-width="3" stroke-linejoin="round" stroke-miterlimit="10" points="52.7,158 
		182.9,58 315.7,58 451.2,158 581.4,158 714.3,124.5 847.1,124.5 980,158 	"/>
	<polygon opacity="0.19" fill="#3081C1" points="1010,158 1142.9,58 1275.7,58 1408.6,158 1541.4,158 1674.3,190.9 1807.1,190.9 
		1937.3,158 	"/>
	<polygon fill="none" stroke="#3081C1" stroke-width="3" stroke-linejoin="bevel" stroke-miterlimit="10" points="1010,158 
		1142.9,58 1275.7,58 1408.6,158 1541.4,158 1674.3,190.9 1807.1,190.9 1940,158 	"/>
</g>
<g id="Layer_2">
	<g>
		<circle opacity="0.39" fill="#C1272D" cx="315.7" cy="58" r="9.3"/>
		<circle fill="none" stroke="#C1272D" stroke-width="3" stroke-miterlimit="10" cx="315.7" cy="58" r="9.3"/>
		<circle fill="#C1272D" cx="315.7" cy="58" r="2.7"/>
	</g>
	<g>
		<circle opacity="0.39" fill="#C1272D" cx="182.9" cy="58" r="9.3"/>
		<circle fill="none" stroke="#C1272D" stroke-width="3" stroke-miterlimit="10" cx="182.9" cy="58" r="9.3"/>
		<circle fill="#C1272D" cx="182.9" cy="58" r="2.7"/>
	</g>
	<g>
		<circle opacity="0.39" fill="#C1272D" cx="50" cy="158" r="9.3"/>
		<circle fill="none" stroke="#C1272D" stroke-width="3" stroke-miterlimit="10" cx="50" cy="158" r="9.3"/>
		<circle fill="#C1272D" cx="50" cy="158" r="2.7"/>
	</g>
	<g>
		<circle opacity="0.39" fill="#C1272D" cx="448.6" cy="158" r="9.3"/>
		<circle fill="none" stroke="#C1272D" stroke-width="3" stroke-miterlimit="10" cx="448.6" cy="158" r="9.3"/>
		<circle fill="#C1272D" cx="448.6" cy="158" r="2.7"/>
	</g>
	<g>
		<circle opacity="0.39" fill="#C1272D" cx="581.4" cy="158" r="9.3"/>
		<circle fill="none" stroke="#C1272D" stroke-width="3" stroke-miterlimit="10" cx="581.4" cy="158" r="9.3"/>
		<circle fill="#C1272D" cx="581.4" cy="158" r="2.7"/>
	</g>
	<g>
		<circle opacity="0.39" fill="#C1272D" cx="714.3" cy="124.5" r="9.3"/>
		<circle fill="none" stroke="#C1272D" stroke-width="3" stroke-miterlimit="10" cx="714.3" cy="124.5" r="9.3"/>
		<circle fill="#C1272D" cx="714.3" cy="124.5" r="2.7"/>
	</g>
	<g>
		<circle opacity="0.39" fill="#C1272D" cx="847.1" cy="124.5" r="9.3"/>
		<circle fill="none" stroke="#C1272D" stroke-width="3" stroke-miterlimit="10" cx="847.1" cy="124.5" r="9.3"/>
		<circle fill="#C1272D" cx="847.1" cy="124.5" r="2.7"/>
	</g>
	<g>
		<circle opacity="0.39" fill="#C1272D" cx="980" cy="158" r="9.3"/>
		<circle fill="none" stroke="#C1272D" stroke-width="3" stroke-miterlimit="10" cx="980" cy="158" r="9.3"/>
		<circle fill="#C1272D" cx="980" cy="158" r="2.7"/>
	</g>
	<g>
		<circle opacity="0.39" fill="#3081C1" cx="1275.7" cy="58" r="9.3"/>
		<circle fill="none" stroke="#3081C1" stroke-width="3" stroke-miterlimit="10" cx="1275.7" cy="58" r="9.3"/>
		<circle fill="#3081C1" cx="1275.7" cy="58" r="2.7"/>
	</g>
	<g>
		<circle opacity="0.39" fill="#3081C1" cx="1142.9" cy="58" r="9.3"/>
		<circle fill="none" stroke="#3081C1" stroke-width="3" stroke-miterlimit="10" cx="1142.9" cy="58" r="9.3"/>
		<circle fill="#3081C1" cx="1142.9" cy="58" r="2.7"/>
	</g>
	<g>
		<circle opacity="0.39" fill="#3081C1" cx="1010" cy="158" r="9.3"/>
		<circle fill="none" stroke="#3081C1" stroke-width="3" stroke-miterlimit="10" cx="1010" cy="158" r="9.3"/>
		<circle fill="#3081C1" cx="1010" cy="158" r="2.7"/>
	</g>
	<g>
		<circle opacity="0.39" fill="#3081C1" cx="1408.6" cy="158" r="9.3"/>
		<circle fill="none" stroke="#3081C1" stroke-width="3" stroke-miterlimit="10" cx="1408.6" cy="158" r="9.3"/>
		<circle fill="#3081C1" cx="1408.6" cy="158" r="2.7"/>
	</g>
	<g>
		<circle opacity="0.39" fill="#3081C1" cx="1541.4" cy="158" r="9.3"/>
		<circle fill="none" stroke="#3081C1" stroke-width="3" stroke-miterlimit="10" cx="1541.4" cy="158" r="9.3"/>
		<circle fill="#3081C1" cx="1541.4" cy="158" r="2.7"/>
	</g>
	<g>
		<circle opacity="0.39" fill="#3081C1" cx="1674.3" cy="190.9" r="9.3"/>
		<circle fill="none" stroke="#3081C1" stroke-width="3" stroke-miterlimit="10" cx="1674.3" cy="190.9" r="9.3"/>
		<circle fill="#3081C1" cx="1674.3" cy="190.9" r="2.7"/>
	</g>
	<g>
		<circle opacity="0.39" fill="#3081C1" cx="1807.1" cy="190.9" r="9.3"/>
		<circle fill="none" stroke="#3081C1" stroke-width="3" stroke-miterlimit="10" cx="1807.1" cy="190.9" r="9.3"/>
		<circle fill="#3081C1" cx="1807.1" cy="190.9" r="2.7"/>
	</g>
	<g>
		<circle opacity="0.39" fill="#3081C1" cx="1940" cy="158" r="9.3"/>
		<circle fill="none" stroke="#3081C1" stroke-width="3" stroke-miterlimit="10" cx="1940" cy="158" r="9.3"/>
		<circle fill="#3081C1" cx="1940" cy="158" r="2.7"/>
	</g>
	<g>
		<path d="M15.6,224c0,4.4-1.6,6.9-4.5,6.9c-2.5,0-4.3-2.4-4.3-6.7c0-4.4,1.9-6.8,4.5-6.8C14.1,217.4,15.6,219.9,15.6,224z
			 M8.6,224.2c0,3.4,1,5.3,2.6,5.3c1.8,0,2.7-2.1,2.7-5.4c0-3.2-0.8-5.3-2.6-5.3C9.7,218.8,8.6,220.7,8.6,224.2z"/>
		<path d="M17.4,229.6c0-0.7,0.5-1.3,1.2-1.3c0.7,0,1.2,0.5,1.2,1.3c0,0.7-0.5,1.3-1.2,1.3C17.9,230.9,17.4,230.3,17.4,229.6z"/>
		<path d="M22.4,229.4c0.4,0,0.8,0,1.4-0.1c1-0.1,2-0.6,2.7-1.3c0.9-0.8,1.5-1.9,1.7-3.5h-0.1c-0.7,0.9-1.8,1.4-3.1,1.4
			c-2.3,0-3.8-1.8-3.8-4c0-2.5,1.8-4.6,4.4-4.6s4.3,2.2,4.3,5.5c0,2.9-1,4.9-2.2,6.1c-1,1-2.4,1.6-3.8,1.7c-0.6,0.1-1.2,0.1-1.6,0.1
			V229.4z M23,221.9c0,1.6,1,2.8,2.5,2.8c1.2,0,2.1-0.6,2.6-1.4c0.1-0.2,0.2-0.4,0.2-0.6c0-2.2-0.8-3.9-2.7-3.9
			C24.1,218.8,23,220.1,23,221.9z"/>
	</g>
	<g>
		<path d="M10.8,152.9L10.8,152.9l-2.3,1.2l-0.3-1.3l2.8-1.5h1.5v13h-1.7V152.9z"/>
		<path d="M17.4,163.3c0-0.7,0.5-1.3,1.2-1.3c0.7,0,1.2,0.5,1.2,1.3c0,0.7-0.5,1.3-1.2,1.3C17.9,164.5,17.4,164,17.4,163.3z"/>
		<path d="M30,157.7c0,4.4-1.6,6.9-4.5,6.9c-2.5,0-4.3-2.4-4.3-6.7c0-4.4,1.9-6.8,4.5-6.8C28.5,151.1,30,153.5,30,157.7z M23,157.9
			c0,3.4,1,5.3,2.6,5.3c1.8,0,2.7-2.1,2.7-5.4c0-3.2-0.8-5.3-2.6-5.3C24.1,152.4,23,154.3,23,157.9z"/>
	</g>
	<g>
		<path d="M10.8,86.6L10.8,86.6l-2.3,1.2l-0.3-1.3l2.8-1.5h1.5v13h-1.7V86.6z"/>
		<path d="M17.4,96.9c0-0.7,0.5-1.3,1.2-1.3c0.7,0,1.2,0.5,1.2,1.3c0,0.7-0.5,1.3-1.2,1.3C17.9,98.1,17.4,97.6,17.4,96.9z"/>
		<path d="M25.2,86.6L25.2,86.6l-2.3,1.2l-0.3-1.3l2.8-1.5h1.5v13h-1.7V86.6z"/>
	</g>
	<g>
		<path d="M10.8,20.2L10.8,20.2l-2.3,1.2l-0.3-1.3l2.8-1.5h1.5v13h-1.7V20.2z"/>
		<path d="M17.4,30.5c0-0.7,0.5-1.3,1.2-1.3c0.7,0,1.2,0.5,1.2,1.3c0,0.7-0.5,1.3-1.2,1.3C17.9,31.8,17.4,31.2,17.4,30.5z"/>
		<path d="M21.4,31.5v-1.1l1.4-1.3c3.3-3.2,4.8-4.8,4.8-6.8c0-1.3-0.6-2.5-2.6-2.5c-1.2,0-2.2,0.6-2.8,1.1l-0.6-1.2
			c0.9-0.8,2.2-1.3,3.7-1.3c2.8,0,4,1.9,4,3.8c0,2.4-1.7,4.3-4.5,7l-1,1v0h5.8v1.5H21.4z"/>
	</g>
	<g>
	</g>
	<g>
	</g>
	<g>
	</g>
	<g>
	</g>
	<g>
	</g>
	<g>
	</g>
	<g>
	</g>
	<g>
	</g>
	<g>
	</g>
	<g>
	</g>
	<g>
	</g>
</g>
</svg>
