
<svg version="1.1" id="svg-271681981081" xmlns:xlink="http://www.w3.org/1999/xlink" xmlns="http://www.w3.org/2000/svg" viewBox="-21 -139 2082 160" title="G7-amblingPace0_Generated-Regular_PI_25_DC_50_C1p0">

<style>
/*  */
#svg-271681981081 .left_pes { fill: DodgerBlue; opacity: 0.5; }
#svg-271681981081 .right_pes { fill: DarkOrange; opacity: 0.5; }
#svg-271681981081 .left_manus { fill: DarkOliveGreen; opacity: 0.5; }
#svg-271681981081 .right_manus { fill: DarkOrchid; opacity: 0.5; }
#svg-271681981081 .left_pes { stroke: DodgerBlue; fill: DodgerBlue; stroke-width: 8px; opacity: 0.5; }
#svg-271681981081 .left_pes.assumed { fill: white; opacity: 0.33; }
#svg-271681981081 .left_pes-marker { stroke: DodgerBlue; fill: transparent; stroke-width: 8px; }
#svg-271681981081 .right_pes { stroke: DarkOrange; fill: DarkOrange; stroke-width: 8px; opacity: 0.5; }
#svg-271681981081 .right_pes.assumed { fill: white; opacity: 0.33; }
#svg-271681981081 .right_pes-marker { stroke: DarkOrange; fill: transparent; stroke-width: 8px; }
#svg-271681981081 .left_manus { stroke: DarkOliveGreen; stroke-dasharray: 4,4; fill: DarkOliveGreen; stroke-width: 8px; opacity: 0.5; }
#svg-271681981081 .left_manus.assumed { stroke-dasharray: 4,4; fill: white; opacity: 0.33; }
#svg-271681981081 .left_manus-marker { stroke: DarkOliveGreen; stroke-dasharray: 8,4; fill: transparent; stroke-width: 8px; }
#svg-271681981081 .right_manus { stroke: DarkOrchid; stroke-dasharray: 4,4; fill: DarkOrchid; stroke-width: 8px; opacity: 0.5; }
#svg-271681981081 .right_manus.assumed { stroke-dasharray: 4,4; fill: white; opacity: 0.33; }
#svg-271681981081 .right_manus-marker { stroke: DarkOrchid; stroke-dasharray: 8,4; fill: transparent; stroke-width: 8px; }
/*  */
</style>
<circle class="left_pes track-pos" r="12" cx="0.0" cy="-117.02857142857141" data-x="0.0" data-color="DodgerBlue" data-x-unc="0.05" data-y="0.3" data-uid="13793" data-y-unc="0.05"></circle>
<circle class="left_pes track-pos" r="12" cx="390.0952380952381" cy="-117.02857142857141" data-x="1.0" data-color="DodgerBlue" data-x-unc="0.05" data-y="0.3" data-annotation="F" data-uid="13794" data-y-unc="0.05"></circle>
<circle class="left_pes track-pos" r="12" cx="780.1904761904761" cy="-117.02857142857141" data-x="2.0" data-color="DodgerBlue" data-x-unc="0.05" data-y="0.3" data-annotation="F" data-uid="13795" data-y-unc="0.05"></circle>
<circle class="left_pes track-pos" r="12" cx="1170.2857142857142" cy="-117.02857142857141" data-x="3.0" data-color="DodgerBlue" data-x-unc="0.05" data-y="0.3" data-annotation="F" data-uid="13796" data-y-unc="0.05"></circle>
<circle class="left_pes track-pos" r="12" cx="1560.3809523809523" cy="-117.02857142857141" data-x="4.0" data-color="DodgerBlue" data-x-unc="0.05" data-y="0.3" data-annotation="F" data-uid="13797" data-y-unc="0.05"></circle>
<circle class="left_pes track-pos" r="12" cx="1950.4761904761904" cy="-117.02857142857141" data-x="5.0" data-color="DodgerBlue" data-x-unc="0.05" data-y="0.3" data-annotation="F" data-uid="13798" data-y-unc="0.05"></circle>
<circle id="left_pes" class="left_pes-marker MOVING" r="16.0" cx="390.0952380952381" cy="-117.02857142857141"></circle>
<circle class="right_pes track-pos" r="12" cx="195.04761904761904" cy="-0.0" data-x="0.5" data-color="DarkOrange" data-x-unc="0.05" data-y="0.0" data-annotation="F" data-uid="13799" data-y-unc="0.05"></circle>
<circle class="right_pes track-pos" r="12" cx="585.1428571428571" cy="-0.0" data-x="1.5" data-color="DarkOrange" data-x-unc="0.05" data-y="0.0" data-annotation="F" data-uid="13800" data-y-unc="0.05"></circle>
<circle class="right_pes track-pos" r="12" cx="975.2380952380952" cy="-0.0" data-x="2.5" data-color="DarkOrange" data-x-unc="0.05" data-y="0.0" data-annotation="F" data-uid="13801" data-y-unc="0.05"></circle>
<circle class="right_pes track-pos" r="12" cx="1365.3333333333333" cy="-0.0" data-x="3.5" data-color="DarkOrange" data-x-unc="0.05" data-y="0.0" data-annotation="F" data-uid="13802" data-y-unc="0.05"></circle>
<circle class="right_pes track-pos" r="12" cx="1755.4285714285713" cy="-0.0" data-x="4.5" data-color="DarkOrange" data-x-unc="0.05" data-y="0.0" data-annotation="F" data-uid="13803" data-y-unc="0.05"></circle>
<circle id="right_pes" class="right_pes-marker FIXED" r="16.0" cx="585.1428571428571" cy="0"></circle>
<circle class="left_manus track-pos" r="8" cx="97.52380952380952" cy="-117.02857142857141" data-x="0.25" data-color="DarkOliveGreen" data-x-unc="0.05" data-y="0.3" data-uid="13805" data-y-unc="0.05"></circle>
<circle class="left_manus track-pos" r="8" cx="487.6190476190476" cy="-117.02857142857141" data-x="1.25" data-color="DarkOliveGreen" data-x-unc="0.05" data-y="0.3" data-annotation="F" data-uid="13806" data-y-unc="0.05"></circle>
<circle class="left_manus track-pos" r="8" cx="877.7142857142857" cy="-117.02857142857141" data-x="2.25" data-color="DarkOliveGreen" data-x-unc="0.05" data-y="0.3" data-annotation="F" data-uid="13807" data-y-unc="0.05"></circle>
<circle class="left_manus track-pos" r="8" cx="1267.8095238095239" cy="-117.02857142857141" data-x="3.25" data-color="DarkOliveGreen" data-x-unc="0.05" data-y="0.3" data-annotation="F" data-uid="13808" data-y-unc="0.05"></circle>
<circle class="left_manus track-pos" r="8" cx="1657.904761904762" cy="-117.02857142857141" data-x="4.25" data-color="DarkOliveGreen" data-x-unc="0.05" data-y="0.3" data-annotation="F" data-uid="13809" data-y-unc="0.05"></circle>
<circle class="left_manus track-pos" r="8" cx="2048.0" cy="-117.02857142857141" data-x="5.25" data-color="DarkOliveGreen" data-x-unc="0.05" data-y="0.3" data-annotation="F" data-uid="13810" data-y-unc="0.05"></circle>
<circle id="left_manus" class="left_manus-marker MOVING" r="12.0" cx="585.1428571428571" cy="-117.02857142857141"></circle>
<circle class="right_manus track-pos" r="8" cx="292.57142857142856" cy="-0.0" data-x="0.75" data-color="DarkOrchid" data-x-unc="0.05" data-y="0.0" data-annotation="F" data-uid="13811" data-y-unc="0.05"></circle>
<circle class="right_manus track-pos" r="8" cx="682.6666666666666" cy="-0.0" data-x="1.75" data-color="DarkOrchid" data-x-unc="0.05" data-y="0.0" data-annotation="F" data-uid="13812" data-y-unc="0.05"></circle>
<circle class="right_manus track-pos" r="8" cx="1072.7619047619046" cy="-0.0" data-x="2.75" data-color="DarkOrchid" data-x-unc="0.05" data-y="0.0" data-annotation="F" data-uid="13813" data-y-unc="0.05"></circle>
<circle class="right_manus track-pos" r="8" cx="1462.8571428571427" cy="-0.0" data-x="3.75" data-color="DarkOrchid" data-x-unc="0.05" data-y="0.0" data-annotation="F" data-uid="13814" data-y-unc="0.05"></circle>
<circle class="right_manus track-pos" r="8" cx="1852.9523809523807" cy="-0.0" data-x="4.75" data-color="DarkOrchid" data-x-unc="0.05" data-y="0.0" data-annotation="F" data-uid="13815" data-y-unc="0.05"></circle>
<circle id="right_manus" class="right_manus-marker FIXED" r="12.0" cx="682.6666666666666" cy="0"></circle>
<path d="M170.66666666666666,-58.514285714285705L190.17142857142858,-58.514285714285705L209.6761904761905,-58.514285714285705L229.18095238095242,-58.514285714285705L248.68571428571434,-58.514285714285705L268.19047619047615,-58.514285714285705L287.6952380952381,-58.514285714285705L307.20000000000005,-58.514285714285705L326.70476190476194,-58.514285714285705L346.2095238095239,-58.514285714285705L365.71428571428567,-58.514285714285705L385.2190476190476,-58.514285714285705L404.72380952380956,-58.514285714285705L424.22857142857146,-58.514285714285705L443.7333333333334,-58.514285714285705L463.2380952380952,-58.514285714285705L482.74285714285713,-58.514285714285705L502.2476190476191,-58.514285714285705L521.752380952381,-58.514285714285705L541.2571428571429,-58.514285714285705L560.7619047619047,-58.514285714285705L580.2666666666668,-58.514285714285705L599.7714285714286,-58.514285714285705L619.2761904761904,-58.514285714285705L638.7809523809524,-58.514285714285705L658.2857142857142,-58.514285714285705L677.7904761904763,-58.514285714285705L697.2952380952381,-58.514285714285705L716.8000000000001,-58.514285714285705L736.3047619047619,-58.514285714285705L755.8095238095237,-58.514285714285705L775.3142857142858,-58.514285714285705L794.8190476190476,-58.514285714285705L814.3238095238096,-58.514285714285705L833.8285714285714,-58.514285714285705L853.3333333333333,-58.514285714285705L872.8380952380953,-58.514285714285705L892.3428571428572,-58.514285714285705L911.8476190476191,-58.514285714285705L931.3523809523809,-58.514285714285705L950.8571428571428,-58.514285714285705L970.3619047619048,-58.514285714285705L989.8666666666667,-58.514285714285705L1009.3714285714286,-58.514285714285705L1028.8761904761905,-58.514285714285705L1048.3809523809523,-58.514285714285705L1067.8857142857144,-58.514285714285705L1087.3904761904762,-58.514285714285705L1106.8952380952383,-58.514285714285705L1126.4,-58.514285714285705L1145.904761904762,-58.514285714285705L1165.4095238095238,-58.514285714285705L1184.9142857142856,-58.514285714285705L1204.4190476190477,-58.514285714285705L1223.9238095238095,-58.514285714285705L1243.4285714285713,-58.514285714285705L1262.9333333333334,-58.514285714285705L1282.4380952380952,-58.514285714285705L1301.9428571428573,-58.514285714285705L1321.4476190476191,-58.514285714285705L1340.952380952381,-58.514285714285705L1360.4571428571428,-58.514285714285705L1379.9619047619049,-58.514285714285705L1399.4666666666667,-58.514285714285705L1418.9714285714285,-58.514285714285705L1438.4761904761904,-58.514285714285705L1457.9809523809522,-58.514285714285705L1477.4857142857145,-58.514285714285705L1496.9904761904763,-58.514285714285705L1516.4952380952382,-58.514285714285705L1536,-58.514285714285705L1555.5047619047618,-58.514285714285705L1575.009523809524,-58.514285714285705L1594.5142857142857,-58.514285714285705L1614.0190476190476,-58.514285714285705L1633.5238095238094,-58.514285714285705L1653.0285714285717,-58.514285714285705L1672.5333333333335,-58.514285714285705L1692.0380952380954,-58.514285714285705L1711.5428571428572,-58.514285714285705L1731.047619047619,-58.514285714285705L1750.552380952381,-58.514285714285705L1770.057142857143,-58.514285714285705L1789.5619047619048,-58.514285714285705L1809.0666666666666,-58.514285714285705L1828.5714285714284,-58.514285714285705L1848.0761904761907,-58.514285714285705L1867.5809523809526,-58.514285714285705L1887.0857142857144,-58.514285714285705L1906.5904761904762,-58.514285714285705L1926.095238095238,-58.514285714285705L1945.6000000000001,-58.514285714285705L1965.104761904762,-58.514285714285705L1984.6095238095238,-58.514285714285705L2004.1142857142856,-58.514285714285705L2023.6190476190475,-58.514285714285705L2043.1238095238098,-58.514285714285705L2062.6285714285714,-58.514285714285705" style="stroke: rgba(0, 0, 0, 0.0980392); stroke-dasharray: 4, 3; stroke-width: 2; fill: transparent; pointer-events: none;"></path><line id="left_pes_coupling" class="pes-coupling-assembly" x1="390.0952380952381" y1="-117.02857142857141" x2="487.6190476190476" y2="-58.514285714285705" style="stroke: rgba(0, 0, 0, 0.0980392); stroke-width: 2; pointer-events: none;"></line><line id="right_pes_coupling" class="pes-coupling-assembly" x1="585.1428571428571" y1="0" x2="487.6190476190476" y2="-58.514285714285705" style="stroke: rgba(0, 0, 0, 0.0980392); stroke-width: 2; pointer-events: none;"></line><line id="left_manus_coupling" class="manus-coupling-assembly" x1="585.1428571428571" y1="-117.02857142857141" x2="633.9047619047619" y2="-58.514285714285705" style="stroke: rgba(0, 0, 0, 0.0980392); stroke-width: 2; pointer-events: none;"></line><line id="right_manus_coupling" class="manus-coupling-assembly" x1="682.6666666666666" y1="0" x2="633.9047619047619" y2="-58.514285714285705" style="stroke: rgba(0, 0, 0, 0.0980392); stroke-width: 2; pointer-events: none;"></line><line id="coupling_length_pes" class="pes-coupling-assembly" x1="487.6190476190476" y1="-58.514285714285705" x2="560.7619047619047" y2="-58.514285714285705" style="stroke: rgba(0, 0, 0, 0.0980392); stroke-width: 2; pointer-events: none;"></line><line id="coupling_length_manus" class="manus-coupling-assembly" x1="560.7619047619047" y1="-58.514285714285705" x2="633.9047619047619" y2="-58.514285714285705" style="stroke: rgba(0, 0, 0, 0.0980392); stroke-width: 2; pointer-events: none;"></line><path id="rear_support_box" d="M585.1428571428571,-117.02857142857141L390.0952380952381,-117.02857142857141L390.0952380952381,0L585.1428571428571,0" style="fill: rgba(0, 0, 0, 0.247059); pointer-events: none;"></path><path id="forward_support_box" d="M585.1428571428571,-117.02857142857141L682.6666666666666,-117.02857142857141L682.6666666666666,0L585.1428571428571,0" style="fill: rgba(0, 0, 0, 0.247059); pointer-events: none;"></path><circle id="rear_coupler" class="pes-coupling-assembly" r="4" style="fill: rgb(115, 47, 47); pointer-events: none;" cx="487.6190476190476" cy="-58.514285714285705"></circle><circle id="forward_coupler" class="manus-coupling-assembly" r="4" style="fill: rgb(115, 47, 47); pointer-events: none;" cx="633.9047619047619" cy="-58.514285714285705"></circle><circle id="geometric_center" r="4" style="fill: rgb(94, 45, 45); pointer-events: none;" cx="560.7619047619047" cy="-58.514285714285705"></circle><circle id="left_pes_pin" r="4" style="fill: dodgerblue; pointer-events: none;" cx="390.0952380952381" cy="-117.02857142857141"></circle><circle id="right_pes_pin" r="4" style="fill: darkorange; pointer-events: none;" cx="585.1428571428571" cy="0"></circle><circle id="left_manus_pin" r="4" style="fill: darkolivegreen; pointer-events: none;" cx="585.1428571428571" cy="-117.02857142857141"></circle><circle id="right_manus_pin" r="4" style="fill: darkorchid; pointer-events: none;" cx="682.6666666666666" cy="0"></circle></svg>